<?xml version="1.0" encoding="utf-8"?>
<!-- Generator: Adobe Illustrator 24.1.1, SVG Export Plug-In . SVG Version: 6.00 Build 0)  -->
<svg version="1.1" id="Layer_1" xmlns="http://www.w3.org/2000/svg" xmlns:xlink="http://www.w3.org/1999/xlink" x="0px" y="0px"
	 viewBox="0 0 841.89 595.28" style="enable-background:new 0 0 841.89 595.28;" xml:space="preserve">
<style type="text/css">
	.st0{clip-path:url(#SVGID_2_);}
	.st1{fill:#00A76D;}
	.st2{fill:#F58220;}
	.st3{fill:#BA2025;}
	.st4{fill:#FED402;}
	.st5{fill:#A71D35;}
	.st6{fill:#A52771;}
	.st7{fill:#862166;}
	.st8{fill:#9E2066;}
	.st9{fill:#631B55;}
	.st10{fill:#761B53;}
	.st11{fill:#CD2027;}
	.st12{fill:#F37024;}
	.st13{fill:#831E5B;}
	.st14{fill:#AA5EA5;}
	.st15{fill:#60499D;}
	.st16{fill:#A791AC;}
	.st17{fill:#F04F3F;}
	.st18{fill:#E01F26;}
	.st19{fill:#FCEE21;}
	.st20{fill:#F89420;}
	.st21{fill:#CBDB2C;}
	.st22{fill:#6CC071;}
	.st23{fill:#146D38;}
	.st24{fill:#225026;}
	.st25{fill:#066D3D;}
	.st26{fill:#387342;}
	.st27{fill:#3CBA95;}
	.st28{fill:#E2E41E;}
	.st29{fill:#01878A;}
	.st30{fill:#02AAB4;}
	.st31{fill:#007192;}
	.st32{fill:#1E4079;}
	.st33{fill:#008CC0;}
	.st34{fill:#017DAD;}
	.st35{fill:#27B4E9;}
	.st36{fill:#1B94D2;}
	.st37{fill:#1B9AD6;}
	.st38{fill:#148ACB;}
	.st39{fill:#0277AF;}
	.st40{fill:#0171A2;}
	.st41{fill:#05509F;}
	.st42{fill:#2BABE2;}
	.st43{fill:#2F358F;}
	.st44{fill:#812A8F;}
	.st45{fill:#BB1E51;}
	.st46{fill:#ED126A;}
	.st47{fill:#7061AA;}
	.st48{fill:#50B848;}
	.st49{fill:#B2D236;}
	.st50{fill:#FFFFFF;stroke:#FFFFFF;stroke-width:0.1085;stroke-miterlimit:10;}
	.st51{display:none;}
	.st52{display:inline;fill:#0A0C0D;}
</style>
<g>
	<defs>
		<path id="SVGID_1_" d="M392.47,362.56l-91.52-92.19c-14.72-14.83-14.09-38.93,1.38-52.97l96.55-87.62
			c14.52-13.18,36.84-12.6,50.65,1.32l91.52,92.19c14.72,14.83,14.09,38.93-1.38,52.97l-96.55,87.62
			C428.6,377.06,406.28,376.48,392.47,362.56z"/>
	</defs>
	<clipPath id="SVGID_2_">
		<use xlink:href="#SVGID_1_"  style="overflow:visible;"/>
	</clipPath>
	<g class="st0">
		<polygon class="st1" points="310.68,380.22 310.68,431.83 327.68,436.51 		"/>
		<polygon class="st2" points="592.15,144.06 650.62,275.86 640.43,185.4 		"/>
		<polygon class="st2" points="443.05,65 685.39,7.5 537.5,-12.45 		"/>
		<polygon class="st3" points="650.62,275.86 612.55,382.7 621.39,209.96 		"/>
		<polygon class="st4" points="592.15,144.06 433.74,144.06 569.72,133.92 		"/>
		<polygon class="st5" points="641.5,301.46 650.62,415.46 612.55,382.7 		"/>
		<polygon class="st5" points="474.32,56.06 355.09,64.78 389.35,28.38 		"/>
		<polygon class="st6" points="646.06,358.46 680.54,400.64 650.62,415.46 		"/>
		<polygon class="st7" points="680.54,400.64 680.54,495.78 650.62,415.46 		"/>
		<polygon class="st8" points="680.54,400.64 702.98,509.82 680.54,495.78 		"/>
		<polygon class="st9" points="702.98,509.82 683.26,549.59 680.54,495.78 		"/>
		<polygon class="st10" points="680.54,495.78 663.3,549.59 683.26,549.59 		"/>
		<polygon class="st11" points="612.55,382.7 543.2,313.29 621.39,209.96 		"/>
		<polygon class="st12" points="543.2,313.29 454.14,358.46 574.82,344.93 		"/>
		<polygon class="st13" points="612.55,382.7 535.6,349.33 574.82,344.93 		"/>
		<polygon class="st14" points="631.59,400.64 612.55,516.06 592.15,373.85 612.55,382.7 		"/>
		<polygon class="st15" points="535.6,349.33 598.12,415.46 592.15,373.85 		"/>
		<polygon class="st16" points="612.55,516.06 592.15,549.59 566.86,549.59 		"/>
		<polygon class="st15" points="603.83,455.23 582.3,538.26 612.55,516.06 		"/>
		<polygon class="st17" points="621.39,209.96 414.7,209.96 592.15,144.06 		"/>
		<polygon class="st18" points="543.2,313.29 414.7,209.96 621.39,209.96 		"/>
		<polygon class="st19" points="454.14,358.46 375.27,358.46 404.5,288.34 		"/>
		<polygon class="st4" points="543.2,313.29 404.5,288.34 454.14,358.46 		"/>
		<polygon class="st17" points="414.7,209.96 404.5,288.34 543.2,313.29 		"/>
		<polygon class="st20" points="414.7,209.96 433.74,144.06 592.15,144.06 		"/>
		<polygon class="st4" points="414.7,209.96 300.48,188.51 433.74,144.06 		"/>
		<polygon class="st2" points="404.5,288.34 300.48,188.51 414.7,209.96 		"/>
		<polygon class="st21" points="404.5,288.34 327.68,349.33 375.27,358.46 		"/>
		<polygon class="st21" points="488.07,357.33 376.14,353.38 410.61,394.75 		"/>
		<polygon class="st22" points="375.27,358.46 339.91,487.98 327.68,349.33 		"/>
		<polygon class="st23" points="363.3,402.3 351.47,549.59 339.91,487.98 		"/>
		<polygon class="st24" points="357.59,475.94 372.55,549.59 351.47,549.59 		"/>
		<polygon class="st1" points="327.68,349.33 225.69,235.31 286.2,344.93 		"/>
		<polygon class="st24" points="286.2,344.93 327.68,436.51 327.68,349.33 		"/>
		<polygon class="st25" points="327.68,436.51 331.08,487.98 310.68,431.83 		"/>
		<polygon class="st26" points="329.91,484.77 333.12,530.49 303.54,542.57 		"/>
		<polygon class="st27" points="310.68,431.83 310.68,526.92 329.91,484.77 		"/>
		<polygon class="st27" points="404.5,288.34 225.69,235.31 327.68,349.33 		"/>
		<polygon class="st27" points="368.37,162.96 539.9,79.55 370.29,61.05 		"/>
		<polygon class="st28" points="300.48,188.51 225.69,235.31 404.5,288.34 		"/>
		<polygon class="st27" points="337.2,129.24 202.24,177.01 300.48,188.51 		"/>
		<polygon class="st29" points="225.69,235.31 202.24,177.01 300.48,188.51 		"/>
		<polygon class="st30" points="309.65,138.99 259.86,100.97 234.33,165.65 		"/>
		<polygon class="st31" points="289.29,123.45 259.35,46.58 259.86,100.97 		"/>
		<polygon class="st32" points="202.24,177.01 177.76,155.37 217.02,155.37 		"/>
		<polygon class="st33" points="202.24,177.01 217.02,155.37 259.86,100.97 234.33,165.65 		"/>
		<polygon class="st34" points="259.35,35.37 217.02,10.22 259.86,89.76 		"/>
		<polygon class="st35" points="217.02,10.22 207.85,10.22 197.39,73.8 		"/>
		<polygon class="st35" points="259.86,100.97 220.59,115.6 217.02,155.37 		"/>
		<polygon class="st36" points="365.96,426.62 434.73,468.85 443.05,404.18 		"/>
		<polygon class="st37" points="511.79,142.41 396.49,151.68 491.73,80.52 		"/>
		<polygon class="st38" points="207.85,10.22 177.76,57.3 197.39,73.8 		"/>
		<polygon class="st39" points="197.39,85.01 192.8,129.24 220.59,115.6 		"/>
		<polygon class="st40" points="218.95,133.92 192.8,129.24 220.59,115.6 		"/>
		<polygon class="st41" points="177.76,155.37 218.95,133.92 217.02,155.37 		"/>
		<polygon class="st36" points="192.8,129.24 177.76,155.37 218.95,133.92 		"/>
		<polygon class="st42" points="192.8,118.03 177.76,116.96 177.76,144.16 		"/>
		<polygon class="st38" points="177.76,116.96 197.39,73.8 192.8,118.03 		"/>
		<polygon class="st33" points="177.76,57.3 185.28,100.42 197.39,73.8 		"/>
		<polygon class="st43" points="217.02,10.22 264.45,-29.56 259.35,35.37 		"/>
		<polygon class="st43" points="533.22,79.71 609.94,102.76 552.75,140.61 		"/>
		<polygon class="st44" points="259.35,35.37 325.64,-12.01 264.45,-29.56 		"/>
		<polygon class="st45" points="325.64,-12.01 348.07,68.12 280.27,20.41 		"/>
		<polygon class="st45" points="445.21,459.91 467.64,540.04 399.84,492.33 		"/>
		<polygon class="st46" points="348.07,79.33 337.2,129.24 304.31,48.54 		"/>
		<polygon class="st12" points="319.17,85.01 309.65,138.99 337.2,129.24 		"/>
		<polygon class="st4" points="315.1,111.64 300.48,68.51 309.65,138.99 		"/>
		<polygon class="st43" points="266.34,53.31 274.32,30.69 292.49,37.33 		"/>
		<polygon class="st47" points="292.49,37.33 284.84,61.1 266.34,53.31 		"/>
		<polygon class="st44" points="253.21,67.27 235.8,50.12 209.54,53.28 		"/>
		<polygon class="st43" points="179.55,54.51 151.24,-7.92 207.85,10.22 		"/>
		<polygon class="st45" points="151.24,-7.92 151.24,89.76 177.76,57.3 179.55,54.51 		"/>
		<polygon class="st46" points="177.76,57.3 159.4,130.56 151.24,89.76 		"/>
		<polygon class="st28" points="109.94,78.86 159.4,130.56 124.73,122.71 		"/>
		<polygon class="st4" points="138.84,109.06 151.24,89.76 159.4,130.56 		"/>
		<polygon class="st48" points="159.4,130.56 141.05,136.55 124.73,122.71 		"/>
		<polygon class="st20" points="177.76,57.3 171.98,107.31 159.4,130.56 		"/>
		<polygon class="st49" points="424.22,148.14 290.96,192.59 327.68,133.32 		"/>
	</g>
</g>
<g>
	<g>
		<g>
			<path class="st50" d="M497.06,199.21c-0.98-0.55-2.19-0.57-3.19-0.07l-10.82,5.48l-0.04-5.36c-0.01-1.67-1.46-3.02-3.23-3.02
				c-0.01,0-0.02,0-0.02,0c-1.79,0.01-3.22,1.38-3.21,3.06l0.53,66.31l-53.36,36.14V216.2l50.2-28.5c1.53-0.87,2.02-2.74,1.1-4.17
				c-0.92-1.44-2.91-1.9-4.44-1.03l-49.88,28.31l-47.52-28.77c-0.99-0.6-2.26-0.65-3.3-0.11c-1.04,0.53-1.69,1.56-1.69,2.67v62.31
				c0,1.68,1.45,3.04,3.23,3.04c1.79,0,3.23-1.36,3.23-3.04v-56.74l42.05,25.47v85.62l-53.36-36.14l0.53-66.31
				c0.01-1.68-1.42-3.05-3.21-3.06c-0.01,0-0.02,0-0.02,0c-1.78,0-3.22,1.35-3.23,3.02l-0.05,5.82l-9.74-4.93
				c-1-0.51-2.21-0.48-3.19,0.07c-0.98,0.55-1.58,1.54-1.58,2.61v70.92c0,0.96,0.48,1.86,1.3,2.44l59.3,41.54
				c0.2,0.14,0.41,0.25,0.63,0.34l12.46,21.96c0.55,0.96,1.6,1.58,2.76,1.61c0.03,0,0.06,0,0.09,0c1.13,0,2.17-0.55,2.76-1.46
				l13.16-20.28l62.05-44.23c0.81-0.57,1.28-1.47,1.28-2.42v-70.92C498.63,200.75,498.03,199.76,497.06,199.21z M492.16,271.23
				L430.9,314.9c-0.32,0.23-0.6,0.51-0.81,0.84l-10.53,16.22l-10.27-18.1c-0.43-0.76-1.16-1.27-1.97-1.49
				c-0.01-0.01-0.02-0.02-0.03-0.02l-58-40.63v-64.31l7.99,4.04l-0.44,55.19c-0.01,0.99,0.49,1.91,1.34,2.49l59.75,40.46
				c0.28,0.33,0.64,0.61,1.05,0.81c0.46,0.22,0.97,0.33,1.47,0.33c0.67,0,1.33-0.19,1.89-0.57l59.84-40.53
				c0.85-0.58,1.35-1.5,1.34-2.49l-0.44-55.65l9.07-4.59V271.23z"/>
		</g>
	</g>
</g>
<g>
	<g class="st51">
		<path class="st52" d="M312.5,416.36c-1.03,0-1.94-0.07-2.72-0.2s-1.41-0.27-1.87-0.42c-0.46-0.15-0.74-0.23-0.83-0.26l0.93-3.14
			h0.24c0.19,0.06,0.5,0.15,0.94,0.28c0.43,0.13,0.97,0.25,1.62,0.36c0.64,0.11,1.36,0.17,2.14,0.17c0.72,0,1.41-0.08,2.07-0.23
			c0.65-0.15,1.24-0.35,1.76-0.58c0.52-0.24,0.96-0.47,1.3-0.71l0.09,0.89c-0.38-0.21-0.8-0.45-1.27-0.73
			c-0.47-0.28-0.94-0.59-1.41-0.95c-0.47-0.35-0.9-0.74-1.28-1.15c-0.38-0.42-0.69-0.86-0.92-1.33c-0.23-0.47-0.35-0.96-0.35-1.48
			c0-1,0.29-1.87,0.86-2.62c0.57-0.75,1.34-1.42,2.3-2.02c0.96-0.6,2.04-1.15,3.23-1.66h0.24c0.32,0.43,0.7,0.9,1.15,1.41
			s0.91,1,1.39,1.48c0.48,0.47,0.93,0.88,1.35,1.23l-1.98,2.68h-0.24c-0.49-0.4-0.94-0.79-1.33-1.17c-0.39-0.38-0.76-0.79-1.1-1.22
			c-0.34-0.43-0.68-0.89-1.03-1.39l1.35,0.83c-0.09-0.04-0.23-0.04-0.44,0.01c-0.2,0.05-0.42,0.13-0.65,0.24
			c-0.23,0.11-0.46,0.26-0.67,0.44c-0.22,0.18-0.4,0.38-0.53,0.59s-0.21,0.46-0.21,0.74c0,0.31,0.14,0.62,0.41,0.95
			s0.62,0.65,1.03,0.98c0.41,0.33,0.83,0.66,1.24,1.01s0.76,0.7,1.03,1.06s0.41,0.73,0.41,1.12c0,0.55-0.18,1.11-0.55,1.67
			c-0.37,0.56-0.91,1.08-1.63,1.55c-0.72,0.47-1.59,0.85-2.61,1.13C314.94,416.22,313.79,416.36,312.5,416.36z M310.19,411.37
			c-0.48,0-0.89-0.14-1.23-0.43c-0.34-0.28-0.51-0.69-0.51-1.22c0-0.53,0.17-0.93,0.51-1.22c0.34-0.28,0.75-0.43,1.23-0.43
			c0.48,0,0.88,0.14,1.22,0.43s0.5,0.69,0.5,1.22c0,0.53-0.16,0.93-0.49,1.22C311.09,411.23,310.68,411.37,310.19,411.37z
			 M310.19,407.46c-0.46,0-0.87-0.15-1.21-0.44c-0.34-0.29-0.51-0.7-0.51-1.23c0-0.51,0.17-0.91,0.51-1.2
			c0.34-0.28,0.75-0.43,1.23-0.43c0.48,0,0.88,0.14,1.22,0.43c0.33,0.28,0.5,0.68,0.5,1.2c0,0.53-0.17,0.94-0.5,1.23
			C311.1,407.32,310.68,407.46,310.19,407.46z"/>
		<path class="st52" d="M323.69,412.91c0.38,0.08,0.75,0.16,1.13,0.22c0.38,0.06,0.75,0.09,1.13,0.09c0.58,0,1.1-0.07,1.55-0.21
			s0.79-0.28,1.01-0.42l-0.89,0.85c0.25-0.35,0.45-0.79,0.62-1.32c0.17-0.53,0.29-1.16,0.38-1.89c0.09-0.73,0.13-1.56,0.13-2.48
			c0-1.19-0.06-2.32-0.17-3.4s-0.25-2.09-0.39-3.05l3.7-0.37h0.24c0.13,0.94,0.24,1.98,0.33,3.12c0.09,1.14,0.13,2.29,0.13,3.45
			c0,1.59-0.17,2.95-0.5,4.06s-0.82,2.02-1.45,2.71c-0.63,0.69-1.39,1.2-2.28,1.52c-0.89,0.32-1.9,0.48-3.01,0.48
			c-0.38,0-0.77-0.02-1.19-0.07c-0.41-0.05-0.9-0.12-1.47-0.22v-0.21L323.69,412.91z M332,410.87v-3.1h3.54v2.68l-0.44,0.42H332z"/>
		<path class="st52" d="M335.11,410.87l0.02-2.68l0.44-0.42h18.33c1.01,0,1.71-0.12,2.09-0.37c0.38-0.25,0.57-0.62,0.57-1.12
			c0-0.42-0.1-0.81-0.29-1.2s-0.42-0.7-0.68-0.95l1.59,0.13c-0.61,0.14-1.13,0.24-1.57,0.31c-0.43,0.07-0.84,0.12-1.21,0.15
			c-0.37,0.03-0.78,0.04-1.23,0.04h-13.44c-0.68,0-1.26-0.18-1.75-0.53c-0.49-0.35-0.77-0.97-0.86-1.86l8.83-7.59h0.22l1.5,2.2
			l-6.72,5.63l-0.54-0.96h13.44c0.68,0,1.36-0.02,2.02-0.05c0.67-0.03,1.22-0.1,1.65-0.2h0.26c0.36,0.32,0.73,0.72,1.1,1.2
			c0.37,0.48,0.69,1,0.95,1.57s0.39,1.14,0.39,1.73c0,0.64-0.15,1.24-0.44,1.81c-0.29,0.57-0.79,1.07-1.5,1.52l-0.85,1.21
			c-0.39,0.14-0.84,0.25-1.35,0.32c-0.51,0.08-1.08,0.11-1.72,0.11H335.11z M353.89,410.87l2.04-3.1h6.61v2.68l-0.43,0.42H353.89z"
			/>
		<path class="st52" d="M369.76,399.11c1.16,0,2.18,0.21,3.05,0.63c0.88,0.42,1.56,1,2.04,1.73c0.49,0.73,0.73,1.54,0.73,2.42
			c0,1.01-0.24,1.9-0.73,2.65c-0.49,0.75-1.11,1.43-1.88,2.03l-0.78-0.79h5.15v2.68l-0.43,0.42h-3.87c-1,0-1.85-0.13-2.55-0.37
			c-0.7-0.25-1.32-0.6-1.84-1.06l2.8-0.08c-0.78,0.55-1.62,0.95-2.5,1.17c-0.88,0.23-1.86,0.34-2.91,0.34h-3.94v-2.68l0.44-0.42
			h5.13l-0.85,0.79c-0.81-0.62-1.5-1.34-2.05-2.14c-0.56-0.8-0.84-1.68-0.84-2.62c0-0.67,0.15-1.28,0.46-1.85
			c0.3-0.57,0.72-1.06,1.26-1.49s1.16-0.75,1.86-1C368.21,399.23,368.96,399.11,369.76,399.11z M366.54,404.55l0.35-2.7
			c0.13,0.79,0.34,1.51,0.63,2.17s0.62,1.24,0.99,1.74c0.37,0.5,0.74,0.91,1.1,1.25c0.36,0.33,0.68,0.58,0.96,0.73l-1.15,0.29
			c0.46-0.25,0.88-0.57,1.24-0.97s0.65-0.83,0.86-1.31c0.21-0.48,0.32-0.96,0.32-1.44c0-0.39-0.08-0.75-0.24-1.09
			c-0.16-0.34-0.4-0.62-0.72-0.83s-0.7-0.32-1.15-0.32c-0.36,0-0.74,0.08-1.13,0.24c-0.39,0.16-0.76,0.42-1.12,0.78
			C367.11,403.44,366.81,403.93,366.54,404.55z M369.61,397.88c-0.48,0-0.88-0.15-1.22-0.44c-0.33-0.29-0.5-0.7-0.5-1.23
			c0-0.53,0.17-0.93,0.5-1.22c0.33-0.28,0.74-0.43,1.22-0.43s0.88,0.14,1.22,0.43s0.5,0.69,0.5,1.22c0,0.53-0.17,0.94-0.5,1.23
			S370.09,397.88,369.61,397.88z"/>
		<path class="st52" d="M376.48,410.87v-2.68l0.44-0.42h4.02l-1.26,0.56c-0.17-0.17-0.29-0.45-0.36-0.84
			c-0.06-0.39-0.1-0.88-0.1-1.47v-10.6l3.59-0.37h0.24v11.95c0,0.28,0,0.62,0.01,1.03c0.01,0.41,0.02,0.81,0.04,1.21
			c0.02,0.39,0.06,0.72,0.12,0.97v0.17c-0.44,0.17-0.96,0.29-1.59,0.37s-1.39,0.13-2.3,0.13H376.48z"/>
		<path class="st52" d="M386.48,395.45l3.94-0.38l0.06,0.17c-0.06,0.25-0.1,0.56-0.12,0.94c-0.02,0.37-0.04,0.75-0.04,1.14
			c-0.01,0.39-0.01,0.72-0.01,1v12.56h-3.83V395.45z"/>
		<path class="st52" d="M397.42,412.27c0-0.62,0.18-1.22,0.54-1.8s0.92-1.07,1.69-1.49c0.76-0.42,1.73-0.71,2.9-0.87l-1.09,0.94
			c-0.71-0.19-1.29-0.58-1.74-1.14s-0.67-1.25-0.67-2.04c0-0.5,0.1-1,0.31-1.51s0.58-1.03,1.1-1.57c0.52-0.54,1.24-1.13,2.15-1.76
			s2.07-1.31,3.46-2.05h0.22l0.96,3.1c-1.06,0.65-1.94,1.22-2.64,1.7c-0.7,0.49-1.23,0.93-1.59,1.33c-0.36,0.4-0.53,0.81-0.53,1.23
			c0,0.42,0.17,0.76,0.52,1.03c0.35,0.27,0.84,0.41,1.48,0.41h3.63V408l-1.17,2.87h-2.63c-0.96,0-1.71,0.1-2.26,0.3
			c-0.55,0.2-0.94,0.45-1.16,0.76c-0.22,0.3-0.34,0.62-0.36,0.93l-0.09-0.62c0.2,0.35,0.58,0.58,1.13,0.72
			c0.55,0.13,1.3,0.2,2.24,0.2h3.89v0.23l-1.09,2.81h-3.17c-1.25,0-2.32-0.16-3.22-0.48c-0.9-0.32-1.59-0.77-2.08-1.35
			C397.66,413.78,397.42,413.08,397.42,412.27z"/>
		<path class="st52" d="M410.57,395.45l3.94-0.38l0.06,0.17c-0.06,0.25-0.1,0.56-0.12,0.94c-0.02,0.37-0.04,0.75-0.04,1.14
			c-0.01,0.39-0.01,0.72-0.01,1v12.56h-3.83V395.45z"/>
		<path class="st52" d="M416.9,410.64l1.15-2.87h7.24c0.91,0,1.55-0.12,1.92-0.36s0.55-0.62,0.55-1.13c0-0.42-0.1-0.81-0.3-1.2
			s-0.43-0.7-0.67-0.95l1.56,0.1c-0.59,0.12-1.11,0.22-1.54,0.29s-0.84,0.12-1.22,0.15c-0.38,0.03-0.78,0.04-1.22,0.04h-0.85
			c-0.44,0-0.92-0.01-1.47-0.04c-0.54-0.03-1.09-0.09-1.63-0.19c-0.54-0.1-1.06-0.24-1.55-0.44l0.93-2.85h0.22
			c0.62,0.18,1.32,0.3,2.09,0.36c0.77,0.06,1.51,0.09,2.22,0.09h0.7c0.7,0,1.37-0.02,2.03-0.05c0.66-0.03,1.21-0.1,1.64-0.2h0.26
			c0.36,0.32,0.73,0.72,1.1,1.2c0.37,0.48,0.69,1,0.95,1.57c0.26,0.57,0.39,1.14,0.39,1.73c0,0.69-0.17,1.34-0.5,1.95
			c-0.33,0.61-0.89,1.14-1.67,1.58l-0.74,1.06c-0.36,0.13-0.77,0.22-1.22,0.28s-0.95,0.09-1.5,0.09h-8.87V410.64z M424.42,410.87
			v-3.1h9.09v2.68l-0.43,0.42H424.42z"/>
		<path class="st52" d="M433.07,410.87v-2.68l0.43-0.42h4.02l-1.26,0.56c-0.17-0.17-0.29-0.46-0.36-0.87s-0.1-0.92-0.1-1.5v-5.84
			l3.59-0.37h0.24v7.25c0,0.28,0,0.62,0.01,1.03c0.01,0.41,0.02,0.81,0.04,1.21s0.06,0.72,0.12,0.97v0.17
			c-0.43,0.17-0.96,0.29-1.59,0.37s-1.39,0.13-2.3,0.13H433.07z M435.7,414.22c0-0.51,0.17-0.91,0.51-1.2
			c0.34-0.28,0.75-0.43,1.23-0.43c0.48,0,0.88,0.14,1.22,0.43c0.33,0.28,0.5,0.68,0.5,1.2c0,0.53-0.16,0.94-0.49,1.23
			c-0.33,0.29-0.74,0.44-1.23,0.44c-0.48,0-0.89-0.15-1.23-0.44C435.87,415.16,435.7,414.75,435.7,414.22z"/>
		<path class="st52" d="M454.96,407.78h4.37v2.68l-0.44,0.42h-17.46v-0.23l1.11-2.87h5.2l-1.2,0.56c-0.17-0.17-0.29-0.45-0.36-0.84
			c-0.07-0.39-0.1-0.88-0.1-1.47v-6.24l3.59-0.35h0.24v9.85l-1.48-1.52h5.78l-1.2,0.56c-0.16-0.17-0.28-0.45-0.35-0.84
			s-0.11-0.88-0.11-1.47v-10.58l3.61-0.38h0.22v14.22L454.96,407.78z M445.07,415.01c0-0.54,0.15-1.04,0.45-1.49
			s0.72-0.81,1.26-1.08c0.54-0.27,1.19-0.41,1.95-0.41h1.3v0.19l-0.67,1.91h-0.61c-0.45,0-0.82,0.07-1.11,0.22s-0.5,0.45-0.63,0.93
			l-0.06-0.69c0.14,0.35,0.35,0.58,0.62,0.7c0.27,0.12,0.58,0.18,0.92,0.18h1.54v0.19l-0.65,1.87h-1.48c-0.55,0-1.04-0.11-1.47-0.34
			c-0.43-0.23-0.76-0.53-1-0.91C445.19,415.89,445.07,415.47,445.07,415.01z"/>
		<path class="st52" d="M458.9,410.87v-2.68l0.43-0.42h4.02l-1.26,0.56c-0.17-0.17-0.29-0.45-0.36-0.84s-0.1-0.88-0.1-1.47v-10.6
			l3.59-0.37h0.24v11.95c0,0.28,0,0.62,0.01,1.03c0.01,0.41,0.02,0.81,0.04,1.21s0.06,0.72,0.12,0.97v0.17
			c-0.43,0.17-0.96,0.29-1.59,0.37s-1.39,0.13-2.3,0.13H458.9z"/>
		<path class="st52" d="M484.25,410.87c-1.35,0-2.7-0.03-4.05-0.1s-2.79-0.28-4.29-0.64c-0.28-0.07-0.58-0.15-0.91-0.24
			c-0.33-0.09-0.65-0.18-0.96-0.28c-0.3-0.1-0.55-0.19-0.74-0.27l0.78-2.95h0.24c0.16,0.07,0.38,0.16,0.67,0.26
			c0.29,0.1,0.58,0.2,0.86,0.28c0.28,0.08,0.5,0.15,0.66,0.21c0.74,0.21,1.57,0.36,2.5,0.45c0.93,0.09,1.85,0.15,2.76,0.17
			c0.91,0.02,1.74,0.03,2.48,0.03h4.54l-0.83,0.48c-0.62-0.46-1.15-1.04-1.58-1.74c-0.43-0.7-0.64-1.51-0.64-2.42
			c0-1.04,0.27-1.93,0.8-2.67c0.54-0.74,1.28-1.31,2.24-1.71c0.96-0.4,2.04-0.6,3.26-0.6c0.74,0,1.55,0.07,2.42,0.22
			s1.74,0.36,2.58,0.63l0.09,0.17c-0.06,0.25-0.1,0.58-0.13,1c-0.03,0.42-0.05,0.84-0.07,1.27s-0.02,0.78-0.02,1.06v6.76l-0.09,0.17
			c-0.44,0.17-0.98,0.29-1.62,0.37s-1.42,0.13-2.34,0.13H484.25z M489.51,404.2c0,0.64,0.2,1.24,0.59,1.82s0.93,1.05,1.62,1.41
			s1.5,0.55,2.42,0.55l-1.04,1.21v-4.99c0-0.55,0.03-1.03,0.09-1.43c0.06-0.4,0.13-0.78,0.22-1.12l0.35,0.79
			c-0.14-0.04-0.31-0.09-0.49-0.15c-0.18-0.06-0.38-0.11-0.6-0.16c-0.22-0.05-0.48-0.07-0.78-0.07c-0.74,0-1.32,0.21-1.74,0.63
			C489.72,403.12,489.51,403.62,489.51,404.2z M491.68,397.9c-0.48,0-0.88-0.15-1.22-0.44c-0.33-0.29-0.5-0.7-0.5-1.23
			c0-0.53,0.17-0.93,0.5-1.22c0.33-0.28,0.74-0.43,1.22-0.43c0.48,0,0.88,0.14,1.22,0.43c0.33,0.28,0.5,0.69,0.5,1.22
			c0,0.53-0.17,0.94-0.5,1.23C492.57,397.76,492.16,397.9,491.68,397.9z"/>
		<path class="st52" d="M500.36,395.45l3.93-0.38l0.07,0.17c-0.06,0.25-0.1,0.56-0.12,0.94c-0.02,0.37-0.04,0.75-0.04,1.14
			c-0.01,0.39-0.01,0.72-0.01,1v12.56h-3.83V395.45z M503.47,410.87v-3.1h3.54v2.68l-0.43,0.42H503.47z"/>
		<path class="st52" d="M507.01,407.78h4.09l-1.28,0.56c-0.17-0.17-0.29-0.45-0.36-0.84c-0.07-0.39-0.1-0.88-0.1-1.47v-5.9
			l3.59-0.37h0.24v9.52l-1.54-1.5h4.35v2.68l-0.44,0.42h-8.98v-2.68L507.01,407.78z M506.71,414.37c0-0.51,0.17-0.91,0.5-1.2
			c0.33-0.28,0.75-0.43,1.24-0.43c0.48,0,0.88,0.14,1.21,0.43s0.49,0.68,0.49,1.2c0,0.53-0.16,0.94-0.49,1.23s-0.74,0.44-1.23,0.44
			c-0.48,0-0.88-0.15-1.22-0.44C506.88,415.3,506.71,414.89,506.71,414.37z M510.64,413.93c0-0.51,0.17-0.91,0.51-1.2
			s0.75-0.43,1.23-0.43s0.88,0.14,1.22,0.43c0.33,0.28,0.5,0.68,0.5,1.2c0,0.53-0.16,0.94-0.49,1.23s-0.74,0.44-1.23,0.44
			c-0.48,0-0.89-0.15-1.23-0.44S510.64,414.46,510.64,413.93z"/>
		<path class="st52" d="M515.56,410.87v-2.68l0.43-0.42h4.26l-1.26,0.56c-0.17-0.17-0.3-0.45-0.37-0.84
			c-0.07-0.39-0.11-0.88-0.11-1.47v-10.58l3.61-0.38h0.24v14.22l-1.57-1.52h4.41v2.68l-0.44,0.42H515.56z M521.82,407.78h13.22
			c0.61,0,1.09-0.07,1.45-0.2c0.35-0.13,0.61-0.31,0.77-0.53s0.24-0.48,0.24-0.77c0-0.42-0.1-0.81-0.29-1.2
			c-0.2-0.38-0.42-0.7-0.66-0.95l1.57,0.13c-0.61,0.14-1.13,0.24-1.55,0.31c-0.43,0.07-0.83,0.12-1.21,0.15
			c-0.38,0.03-0.79,0.04-1.24,0.04h-12.09l1.26-3.1h11.5c0.7,0,1.37-0.02,2.03-0.05c0.66-0.03,1.21-0.1,1.64-0.2h0.26
			c0.38,0.35,0.75,0.78,1.13,1.31c0.38,0.53,0.7,1.1,0.97,1.71s0.4,1.25,0.4,1.9c0,0.61-0.1,1.18-0.29,1.72
			c-0.2,0.54-0.51,1.02-0.95,1.45s-1.02,0.75-1.76,1c-0.74,0.24-1.64,0.36-2.7,0.36h-13.7V407.78z"/>
		<path class="st52" d="M543.32,393.08c0-0.54,0.15-1.04,0.45-1.49s0.72-0.81,1.26-1.08c0.54-0.27,1.19-0.41,1.95-0.41h1.3v0.19
			l-0.67,1.91h-0.61c-0.45,0-0.82,0.07-1.11,0.22c-0.29,0.15-0.5,0.45-0.63,0.93l-0.07-0.69c0.14,0.35,0.35,0.58,0.62,0.7
			c0.27,0.12,0.58,0.18,0.92,0.18h1.54v0.19l-0.65,1.87h-1.48c-0.55,0-1.04-0.12-1.47-0.34s-0.76-0.53-1-0.91
			S543.32,393.54,543.32,393.08z M544.08,397.53l3.93-0.37l0.07,0.17c-0.06,0.25-0.1,0.56-0.12,0.94c-0.02,0.37-0.04,0.76-0.04,1.14
			c-0.01,0.39-0.01,0.72-0.01,1v10.48h-3.83V397.53z"/>
	</g>
</g>
</svg>
